<?xml version="1.0" standalone="no"?>
<!DOCTYPE svg PUBLIC "-//W3C//DTD SVG 20010904//EN"
 "http://www.w3.org/TR/2001/REC-SVG-20010904/DTD/svg10.dtd">
<svg version="1.0" xmlns="http://www.w3.org/2000/svg"
 width="569.000000pt" height="438.000000pt" viewBox="0 0 569.000000 438.000000"
 preserveAspectRatio="xMidYMid meet">

<g transform="translate(0.000000,438.000000) scale(0.100000,-0.100000)"
fill="#000000" stroke="none">
<path d="M1030 4261 c-6 -13 -10 -201 -10 -543 l0 -523 -158 0 -157 0 -3 61
-3 61 -107 6 c-176 10 -265 48 -359 151 -57 62 -101 148 -137 268 -15 48 -31
90 -35 92 -9 6 -4 -3418 5 -3581 l6 -103 532 0 c567 0 691 7 844 46 179 45
310 115 434 233 l68 63 0 -171 0 -172 673 3 c525 3 685 7 730 17 42 10 61 11
66 3 15 -25 1181 -36 1361 -12 559 74 891 426 867 920 -7 135 -31 232 -87 342
-58 116 -159 238 -249 300 l-24 17 59 64 c78 85 138 188 176 301 41 118 50
295 23 427 -76 378 -370 608 -832 651 l-123 12 0 521 c0 455 -2 523 -16 543
l-15 22 -1759 0 c-1729 0 -1759 0 -1770 -19z m3428 -103 l3 -48 -130 0 -131 0
0 50 0 51 128 -3 127 -3 3 -47z m-3280 15 c-2 -22 -9 -29 -29 -31 -21 -3 -27
2 -31 22 -6 32 -2 36 34 36 26 0 29 -3 26 -27z m100 0 c-2 -22 -9 -29 -30 -31
-25 -3 -28 0 -28 27 0 28 3 31 31 31 27 0 30 -3 27 -27z m100 0 c-3 -24 -8
-28 -33 -28 -25 0 -30 4 -33 28 -3 25 -1 27 33 27 34 0 36 -2 33 -27z m3170
-368 l2 -225 -490 0 -491 0 -15 36 c-8 19 -17 48 -20 63 l-6 29 103 9 104 10
-157 2 c-100 0 -158 -3 -158 -9 0 -5 16 -10 35 -10 l35 0 0 -65 0 -65 -1215 0
-1215 0 0 228 0 227 1742 -2 1743 -3 3 -225z m-4381 -306 c95 -137 241 -208
431 -209 l72 0 0 -645 0 -645 83 -1 c238 -1 427 3 470 12 75 17 137 64 172
133 26 53 30 70 30 145 0 140 -44 230 -141 287 -79 46 -134 56 -364 63 l-215
6 0 30 0 30 185 3 c102 1 215 -2 252 -8 154 -23 251 -89 310 -207 28 -58 33
-79 36 -164 6 -139 -19 -220 -91 -293 -36 -37 -70 -61 -112 -77 -57 -22 -75
-24 -373 -29 -173 -3 -316 -3 -318 -1 -2 2 -4 294 -4 648 l0 643 -42 0 c-66 0
-170 26 -235 57 -70 34 -172 132 -201 194 -15 31 -22 63 -21 105 l0 59 23 -45
c12 -25 36 -66 53 -91z m3384 40 c42 -83 125 -154 202 -173 l27 -6 0 -195 c0
-107 -2 -195 -5 -195 -3 0 -20 17 -40 38 l-34 37 -1 127 0 127 -43 25 c-89 53
-137 126 -137 211 0 25 2 45 5 45 2 0 14 -18 26 -41z m-743 2 l682 -1 0 -162
0 -162 42 -64 c27 -41 70 -87 119 -127 212 -171 304 -356 316 -635 8 -195 -34
-362 -124 -488 -31 -44 -33 -52 -33 -126 l0 -78 75 -80 c161 -171 233 -419
205 -699 -27 -273 -156 -517 -332 -631 l-51 -33 32 -3 c27 -3 31 -7 31 -33 l0
-29 -150 0 c-93 0 -150 4 -150 10 0 6 6 10 14 10 8 0 57 21 108 47 126 64 263
199 325 318 131 254 143 590 28 832 -45 96 -85 153 -156 223 l-59 57 0 80 c0
70 3 83 26 114 104 139 158 367 135 566 -35 291 -188 516 -436 639 -125 62
-313 104 -462 104 l-43 0 0 135 0 135 -505 0 -506 0 3 -380 c2 -209 1 -380 -2
-380 -3 0 -20 28 -37 63 -63 120 -158 216 -290 294 -70 41 -230 93 -342 111
l-105 18 3 53 c4 74 -10 221 -20 221 -5 0 -9 -61 -9 -135 l0 -135 -40 0 -40 0
0 180 0 180 533 -4 c292 -2 839 -5 1215 -5z m1742 -173 l0 -173 -177 2 -178 2
-3 96 -3 95 -54 0 c-48 0 -55 -2 -55 -20 0 -17 7 -20 40 -20 l41 0 -3 -77 -3
-78 -170 0 -170 0 -3 78 -3 77 61 0 c52 0 60 3 60 19 0 16 -11 19 -85 24 -49
3 -103 14 -128 25 -43 19 -99 68 -117 103 -10 19 0 19 470 19 l480 0 0 -172z
m-2022 -656 l2 -713 273 3 c254 3 276 5 328 26 66 26 90 50 121 117 20 43 23
66 22 155 0 121 -17 170 -80 240 -79 87 -176 112 -440 112 l-182 -1 -4 36 c-3
24 0 37 10 41 27 10 387 -8 457 -23 95 -20 167 -58 214 -111 77 -88 106 -185
99 -331 -9 -158 -71 -255 -198 -306 -52 -20 -72 -22 -377 -25 l-323 -3 0 710
0 711 -201 0 -201 0 3 -893 4 -893 58 -114 c82 -165 100 -241 100 -420 0 -118
-4 -160 -22 -225 -22 -83 -76 -205 -111 -255 -18 -25 -20 -44 -20 -165 l0
-137 603 5 c675 5 683 5 834 77 155 73 267 181 337 325 43 88 63 159 78 283
20 163 -19 353 -100 486 -68 113 -206 225 -334 273 -27 9 -48 20 -48 23 0 4
32 28 70 55 93 63 162 142 211 240 59 121 74 188 73 340 -2 226 -57 368 -199
511 -156 157 -317 210 -675 223 l-175 6 -3 34 -3 34 188 -6 c268 -8 422 -40
562 -119 166 -95 295 -264 353 -465 19 -66 23 -101 22 -233 0 -147 -2 -160
-32 -251 -39 -116 -93 -203 -181 -288 -39 -38 -61 -66 -53 -69 72 -24 231
-175 291 -275 119 -201 142 -493 57 -739 -41 -119 -82 -190 -164 -279 -111
-120 -253 -197 -432 -236 -77 -16 -143 -18 -720 -18 l-635 0 -3 176 -2 176 26
39 c170 247 177 624 18 896 l-45 76 4 314 c2 183 8 351 16 404 10 73 10 107 0
175 -8 54 -14 243 -16 531 l-4 448 248 3 c136 1 259 3 273 2 l25 0 3 -713z
m392 605 c0 -63 -2 -116 -4 -118 -2 -2 -45 -3 -95 -1 l-91 3 0 108 c0 59 3
111 7 114 3 4 46 7 95 7 l88 0 0 -113z m-1773 -168 c459 -39 734 -256 809
-637 50 -260 -31 -531 -211 -701 -31 -29 -55 -54 -53 -55 2 -2 26 -18 53 -37
67 -45 172 -152 220 -225 174 -262 180 -606 17 -889 -50 -86 -190 -220 -285
-274 -96 -54 -240 -104 -367 -127 -81 -15 -180 -18 -662 -21 l-568 -5 0 1443
0 1444 33 -40 32 -39 5 -1366 5 -1365 525 0 c454 1 538 3 620 18 442 81 710
372 710 772 0 258 -146 504 -384 645 -41 25 -74 48 -73 52 1 4 29 29 62 55
178 144 275 369 261 603 -18 314 -187 531 -486 628 -121 40 -235 54 -477 59
l-233 6 0 33 0 34 159 0 c88 0 217 -5 288 -11z m3548 1 c283 -27 468 -103 621
-256 207 -207 271 -550 155 -832 -41 -100 -94 -177 -174 -256 -59 -58 -67 -70
-53 -78 9 -5 43 -32 76 -59 262 -218 360 -573 249 -903 -109 -327 -404 -531
-829 -576 -52 -5 -285 -10 -517 -10 l-423 0 0 34 0 34 483 5 c510 5 558 9 706
58 361 119 567 408 548 769 -13 260 -150 481 -377 611 -33 19 -60 36 -60 39 0
3 14 14 30 23 139 82 265 261 306 432 22 93 23 268 1 358 -60 246 -257 432
-531 502 -140 35 -287 45 -713 45 l-383 0 0 35 0 35 388 0 c213 0 436 -5 497
-10z m101 -467 c155 -51 247 -171 261 -343 10 -124 -42 -270 -118 -331 -87
-68 -113 -73 -426 -77 l-283 -3 0 391 0 392 253 -4 c218 -4 260 -7 313 -25z
m-1758 -86 c134 -39 203 -137 206 -290 0 -45 -2 -94 -7 -109 l-7 -28 -150 0
-149 0 -3 -57 -3 -58 -150 -3 c-82 -1 -154 -7 -159 -12 -14 -14 -43 -12 -49 4
-9 22 -8 561 0 570 14 14 412 0 471 -17z m-2020 -144 l3 -153 -156 0 -155 0 0
155 0 156 153 -3 152 -3 3 -152z m222 105 c104 -53 152 -133 154 -258 1 -85
-21 -148 -70 -196 -49 -49 -89 -64 -196 -71 l-78 -6 0 288 0 288 63 -6 c41 -5
84 -18 127 -39z m-490 -309 c0 -12 9 -36 19 -53 12 -19 20 -56 23 -98 l4 -68
-43 0 -43 0 0 120 c0 113 1 120 20 120 14 0 20 -7 20 -21z m270 -99 l0 -120
-70 0 -70 0 0 78 c0 83 -4 93 -37 111 -13 6 -23 21 -23 31 0 19 7 20 100 20
l100 0 0 -120z m2180 -23 c0 -2 -11 -14 -25 -27 l-25 -23 0 26 c0 22 5 27 25
27 14 0 25 -1 25 -3z m-1250 -324 l0 -216 -62 59 c-35 33 -80 73 -101 89 l-38
28 45 46 c44 46 120 157 131 192 18 56 25 1 25 -198z m1750 -53 c0 -31 -17
-39 -38 -18 -9 9 -8 16 5 30 23 26 33 22 33 -12z m-2412 -234 c214 -55 333
-211 333 -436 0 -203 -103 -358 -281 -423 -107 -40 -195 -49 -480 -51 l-265
-1 -3 469 -2 468 317 -5 c248 -3 332 -8 381 -21z m1787 13 c112 -15 193 -43
249 -86 101 -77 154 -185 163 -334 17 -254 -99 -425 -322 -479 -31 -7 -176
-14 -382 -17 l-333 -5 0 466 0 466 274 0 c151 0 309 -5 351 -11z m1734 -14
c137 -34 239 -117 300 -244 35 -74 36 -79 36 -196 0 -114 -2 -123 -32 -188
-44 -93 -119 -170 -208 -212 -123 -59 -202 -68 -582 -66 l-93 1 0 466 0 467
258 -6 c184 -4 275 -10 321 -22z"/>
<path d="M2390 3800 l0 -90 213 1 c146 1 193 4 152 9 -33 4 -124 8 -202 9
l-141 1 -4 71 c-2 39 -1 73 1 75 2 2 368 4 813 4 l808 0 0 -75 0 -75 -62 -1
c-58 -1 -60 -2 -31 -11 17 -6 48 -7 67 -4 l36 7 0 84 0 85 -825 0 -825 0 0
-90z"/>
<path d="M4140 3805 l0 -85 145 0 145 0 0 85 0 85 -145 0 -145 0 0 -85z m271
70 c3 -2 3 -20 1 -40 l-4 -35 -124 0 -124 0 0 40 0 40 123 0 c68 0 126 -2 128
-5z m-1 -115 l0 -30 -125 0 -125 0 0 30 0 30 125 0 125 0 0 -30z"/>
<path d="M1223 3800 c11 -38 26 -70 33 -70 6 0 17 22 24 50 7 27 15 48 20 45
4 -2 13 -25 19 -50 6 -25 17 -45 24 -45 6 0 22 32 33 71 12 38 17 68 11 66 -5
-1 -16 -24 -24 -50 -8 -26 -18 -45 -22 -43 -5 3 -14 26 -20 52 -14 56 -30 53
-48 -10 -8 -27 -16 -46 -19 -44 -2 3 -10 25 -17 48 -7 24 -18 45 -24 47 -7 3
-3 -22 10 -67z"/>
<path d="M1600 3802 l0 -69 35 -1 c35 -1 55 17 55 52 0 22 -31 48 -51 43 -15
-4 -19 0 -19 19 0 13 -4 24 -10 24 -6 0 -10 -29 -10 -68z m65 -22 c0 -18 -6
-26 -22 -28 -20 -3 -23 1 -23 28 0 27 3 31 23 28 16 -2 22 -10 22 -28z"/>
<path d="M1885 3860 c4 -6 11 -8 16 -5 14 9 11 15 -7 15 -8 0 -12 -5 -9 -10z"/>
<path d="M1983 3834 c-6 -13 -7 -24 -2 -24 5 0 9 -16 9 -35 0 -35 22 -57 38
-40 4 4 1 10 -5 12 -15 5 -17 54 -4 69 5 5 2 16 -8 26 -15 15 -17 15 -28 -8z"/>
<path d="M1462 3818 c-7 -7 -12 -24 -12 -38 0 -14 5 -31 12 -38 15 -15 54 -16
63 -2 4 6 -7 10 -24 10 -21 0 -31 5 -31 15 0 10 10 15 30 15 18 0 30 5 30 13
0 18 -21 37 -40 37 -9 0 -21 -5 -28 -12z m48 -13 c11 -13 8 -15 -14 -15 -25 0
-33 10 -19 23 10 11 19 8 33 -8z"/>
<path d="M1757 3823 c-15 -14 -6 -40 19 -51 28 -14 23 -36 -7 -27 -11 4 -19 2
-19 -5 0 -7 13 -10 32 -8 42 4 50 33 14 49 -33 15 -33 29 0 29 14 0 23 4 19
10 -7 11 -48 14 -58 3z"/>
<path d="M1890 3780 c0 -27 5 -50 10 -50 6 0 10 23 10 50 0 28 -4 50 -10 50
-5 0 -10 -22 -10 -50z"/>
<path d="M2099 3804 c-7 -20 -6 -32 6 -50 16 -25 49 -32 61 -13 4 7 1 10 -7 7
-18 -7 -51 10 -44 23 4 5 19 9 36 9 30 0 38 17 17 38 -22 22 -58 14 -69 -14z
m59 -2 c2 -7 -6 -12 -17 -12 -21 0 -27 11 -14 24 9 9 26 2 31 -12z"/>
<path d="M4310 2321 l0 -322 238 4 c155 2 251 8 277 16 23 8 59 33 86 60 59
61 84 144 77 253 -7 88 -32 150 -84 201 -82 81 -144 98 -396 104 l-198 5 0
-321z m240 -1 l0 -290 -105 0 -105 0 0 290 0 290 105 0 105 0 0 -290z m170
268 c91 -17 170 -70 205 -138 25 -48 36 -138 25 -208 -24 -145 -94 -200 -267
-210 l-93 -5 0 291 0 291 38 -5 c20 -3 62 -10 92 -16z"/>
<path d="M670 1075 l0 -395 243 0 c265 0 338 10 430 55 228 114 284 438 106
613 -99 97 -211 122 -550 122 l-229 0 0 -395z m584 341 c33 -9 82 -29 109 -44
67 -36 152 -142 130 -162 -4 -5 -182 -11 -395 -15 l-388 -8 0 128 0 128 243
-6 c179 -4 257 -9 301 -21z m-14 -371 l0 -115 -265 0 -265 0 0 115 0 115 265
0 265 0 0 -115z m230 -154 c0 -4 -25 -32 -55 -60 -104 -98 -198 -121 -501
-121 l-204 0 0 90 0 90 348 3 c191 1 362 3 380 5 17 1 32 -2 32 -7z"/>
<path d="M2530 1075 l0 -398 273 5 c308 6 385 18 465 71 57 38 106 110 128
184 23 79 16 251 -13 315 -28 62 -94 132 -150 159 -91 44 -145 51 -430 56
l-273 5 0 -397z m584 341 c116 -26 195 -86 238 -181 30 -67 33 -232 4 -314
-25 -74 -93 -141 -171 -172 -57 -22 -76 -23 -342 -27 l-283 -4 0 354 c0 195 3
358 8 362 13 14 471 -1 546 -18z"/>
<path d="M4310 1075 l0 -395 188 0 c210 0 299 15 394 67 152 83 223 273 169
451 -16 55 -32 83 -73 127 -99 108 -181 133 -470 141 l-208 5 0 -396z m245
350 c0 -11 -178 -20 -202 -10 -8 2 -11 10 -8 15 9 14 210 9 210 -5z m150 -5
c-28 -12 -115 -12 -115 0 0 6 29 10 68 9 46 0 61 -3 47 -9z m43 -47 c-10 -2
-26 -2 -35 0 -10 3 -2 5 17 5 19 0 27 -2 18 -5z m89 1 c-3 -3 -12 -4 -19 -1
-8 3 -5 6 6 6 11 1 17 -2 13 -5z m-180 -76 c-2 -13 -4 -3 -4 22 0 25 2 35 4
23 2 -13 2 -33 0 -45z m302 -25 c-6 -7 -14 -13 -17 -13 -3 0 -1 5 6 12 9 9 5
20 -20 48 l-33 35 37 -34 c29 -27 35 -38 27 -48z m32 -20 c13 -16 12 -17 -3
-4 -10 7 -18 15 -18 17 0 8 8 3 21 -13z m10 -46 c-10 -9 -11 -8 -5 6 3 10 9
15 12 12 3 -3 0 -11 -7 -18z m39 -121 c0 -109 -7 -120 -84 -146 -106 -35 -208
-49 -413 -56 l-193 -7 0 120 0 120 143 -4 c167 -6 413 10 477 31 72 23 70 24
70 -58z m-40 -187 c0 -18 -104 -114 -145 -133 -81 -38 -138 -48 -322 -53
l-183 -5 0 71 0 71 150 0 c173 0 309 13 407 39 84 23 93 24 93 10z"/>
</g>
</svg>
